<svg width="24" height="24" viewBox="0 0 24 24" fill="none" xmlns="http://www.w3.org/2000/svg">
<path fill-rule="evenodd" clip-rule="evenodd" d="M8.3985 7.0004L11.8272 3.57171C11.9227 3.47614 12.0777 3.47614 12.1732 3.57171L15.602 7.0004C15.6975 7.09597 15.6975 7.2509 15.602 7.3465L12.1732 10.7752C12.0777 10.8707 11.9227 10.8707 11.8272 10.7752L8.3985 7.3465C8.30291 7.2509 8.30291 7.09597 8.3985 7.0004ZM13.2248 11.827L16.6535 8.39827C16.7491 8.30271 16.904 8.30271 16.9996 8.39827L20.4283 11.827C20.5239 11.9225 20.5239 12.0775 20.4283 12.1731L16.9996 15.6017C16.904 15.6973 16.7491 15.6973 16.6535 15.6017L13.2248 12.1731C13.1293 12.0775 13.1293 11.9225 13.2248 11.827ZM11.8272 13.2251L8.3985 16.6538C8.30291 16.7493 8.30291 16.9043 8.3985 16.9998L11.8272 20.4285C11.9227 20.5241 12.0777 20.5241 12.1732 20.4285L15.602 16.9998C15.6975 16.9043 15.6975 16.7493 15.602 16.6538L12.1732 13.2251C12.0777 13.1295 11.9227 13.1295 11.8272 13.2251ZM3.57168 11.827L7.00036 8.39827C7.09594 8.30271 7.25088 8.30271 7.34644 8.39827L10.7751 11.827C10.8707 11.9225 10.8707 12.0775 10.7751 12.1731L7.34644 15.6017C7.25088 15.6973 7.09594 15.6973 7.00036 15.6017L3.57168 12.1731C3.47611 12.0775 3.47611 11.9225 3.57168 11.827Z" fill="#1D1D1F"/>
</svg>
