<svg width="24" height="24" viewBox="0 0 24 24" fill="none" xmlns="http://www.w3.org/2000/svg">
<g clip-path="url(#clip0_1143_1660)">
<path d="M7.84429 11.8378L9.84005 12.99L9.84005 15.2945L7.84429 16.4468L5.84854 15.2945L5.84854 12.99L7.84429 11.8378Z" fill="#1D1D1F"/>
<path d="M11.242 4.55431L13.2378 5.70656L13.2378 8.01106L11.242 9.16331L9.24624 8.01106L9.24624 5.70656L11.242 4.55431Z" fill="#1D1D1F"/>
<path d="M20.4134 9.9036L22.4091 11.0558L22.4091 13.3603L20.4134 14.5126L18.4176 13.3603L18.4176 11.0558L20.4134 9.9036Z" fill="#1D1D1F"/>
<path d="M7.02298 7.04085L9.01873 8.1931L9.01873 10.4976L3.33438 13.7795L1.33862 12.6273L1.33862 10.3228L7.02298 7.04085Z" fill="#1D1D1F"/>
<path d="M15.8101 7.23908L17.8058 8.39133L17.8058 10.6958L12.1215 13.9777L10.1257 12.8255L10.1257 10.521L15.8101 7.23908Z" fill="#1D1D1F"/>
<path d="M16.1944 12.3901L18.1901 13.5424L18.1901 15.8469L12.5058 19.1288L10.51 17.9765L10.51 15.672L16.1944 12.3901Z" fill="#1D1D1F"/>
</g>
<defs>
<clipPath id="clip0_1143_1660">
<rect width="24" height="24" fill="white"/>
</clipPath>
</defs>
</svg>
