<svg width="24" height="24" viewBox="0 0 24 24" fill="none" xmlns="http://www.w3.org/2000/svg">
<path d="M13.2776 9.00915C12.5712 9.41809 11.3754 9.41809 10.669 9.00915C10.3731 8.83853 10.2038 8.61819 10.2032 8.40486V8.07183C10.2677 8.12095 10.3373 8.16784 10.4133 8.21173C10.851 8.46433 11.4119 8.59081 11.9733 8.59081C12.5347 8.59081 13.0955 8.46433 13.5333 8.21173C13.6092 8.16784 13.6789 8.12095 13.7434 8.07183V8.40401C13.7422 8.62127 13.5772 8.83639 13.2776 9.00915ZM10.669 6.55648C11.0222 6.35206 11.4977 6.24997 11.9733 6.24997C12.4489 6.24997 12.9244 6.35206 13.2776 6.55648C13.5784 6.72985 13.7434 6.94531 13.7434 7.16291C13.7434 7.38043 13.5784 7.59589 13.2776 7.76926C12.5712 8.17819 11.3754 8.17819 10.669 7.76926C10.3682 7.59589 10.2032 7.38043 10.2032 7.16291C10.2032 6.94531 10.3682 6.72985 10.669 6.55648V6.55648ZM14.2537 7.16291C14.2537 6.75518 13.9979 6.38278 13.5333 6.11401C12.6577 5.60881 11.2888 5.60881 10.4133 6.11401C9.94859 6.38278 9.69287 6.75518 9.69287 7.16291V8.40555C9.69347 8.812 9.94988 9.18372 10.4133 9.45163C10.851 9.70423 11.4119 9.8307 11.9733 9.8307C12.5347 9.8307 13.0955 9.70423 13.5333 9.45163C13.9961 9.18406 14.2518 8.8126 14.2537 8.40486V7.17566H14.2532C14.2533 7.17138 14.2537 7.16719 14.2537 7.16291" fill="#1D1D1F"/>
<path d="M18.2833 15.6492L12.2704 19.1275V12.1747L18.2833 8.6964V15.6492ZM11.9732 11.6597L5.95802 8.18007L11.9732 4.7004L17.9884 8.18007L11.9732 11.6597ZM11.6761 19.1275L5.66314 15.6492V8.6964L11.6761 12.1747V19.1275ZM11.9833 19.9392C11.9893 19.939 11.9954 19.9387 12.0015 19.9381C12.0082 19.9375 12.0149 19.9364 12.0217 19.9353C12.0286 19.9341 12.0353 19.933 12.042 19.9314C12.0474 19.9301 12.0526 19.9286 12.0578 19.9271C12.0643 19.9251 12.0706 19.9229 12.0771 19.9205C12.0836 19.918 12.0901 19.9155 12.0965 19.9126C12.102 19.9102 12.1072 19.9073 12.1125 19.9045C12.1156 19.9028 12.1189 19.902 12.1219 19.9002L18.7291 16.0783C18.7699 16.0547 18.8019 16.0222 18.8265 15.9854C18.8268 15.9849 18.8271 15.9843 18.8275 15.9837C18.8371 15.969 18.8456 15.9538 18.8525 15.9377C18.8542 15.9338 18.8554 15.9298 18.8569 15.9259C18.8619 15.9125 18.8664 15.8992 18.8695 15.8852C18.871 15.8785 18.8719 15.8715 18.8729 15.8646C18.8747 15.8528 18.8761 15.8412 18.8765 15.8292C18.8766 15.8257 18.8775 15.8223 18.8775 15.8187V8.18101C18.8775 8.17742 18.8766 8.17408 18.8765 8.17057C18.8763 8.16373 18.8761 8.15697 18.8754 8.15021C18.8749 8.1443 18.8737 8.13857 18.8726 8.13267C18.8717 8.12659 18.8708 8.1206 18.8695 8.11461C18.8677 8.10657 18.8656 8.0987 18.8631 8.09082C18.862 8.08731 18.8606 8.08389 18.8593 8.08047C18.8585 8.07816 18.8577 8.07593 18.8568 8.07371C18.8553 8.06986 18.8542 8.06592 18.8525 8.06224C18.8483 8.05232 18.8434 8.04273 18.8381 8.03332C18.8379 8.03298 18.8378 8.03264 18.8376 8.03229C18.8373 8.03169 18.8368 8.03127 18.8365 8.03067C18.8336 8.02562 18.8306 8.02057 18.8273 8.01569C18.8271 8.01526 18.8268 8.01484 18.8265 8.0145C18.802 7.97761 18.7699 7.94518 18.7291 7.92157L12.1219 4.09953C12.1189 4.09774 12.1156 4.09697 12.1125 4.09525C12.1034 4.09038 12.0939 4.08644 12.0843 4.08259C12.0755 4.079 12.0668 4.0754 12.0579 4.07266C12.0488 4.07001 12.0397 4.0683 12.0305 4.0665C12.0208 4.06453 12.0112 4.06257 12.0015 4.06162C11.9921 4.06068 11.9827 4.06086 11.9732 4.06086C11.9637 4.06086 11.9543 4.06068 11.9449 4.06162C11.9352 4.06257 11.9256 4.06453 11.916 4.0665C11.9067 4.0683 11.8976 4.07001 11.8885 4.07266C11.8796 4.07532 11.8709 4.079 11.8621 4.0825C11.8525 4.08644 11.843 4.09038 11.8338 4.09534C11.8308 4.09697 11.8275 4.09782 11.8245 4.09953L5.21736 7.92157C5.17649 7.94518 5.14443 7.97761 5.11989 8.0145C5.11963 8.01484 5.11938 8.01526 5.11912 8.01569C5.11587 8.02057 5.11288 8.02562 5.10997 8.03067C5.10963 8.03127 5.10912 8.03169 5.10877 8.03229C5.1086 8.03264 5.10852 8.03298 5.10835 8.03332C5.10305 8.04273 5.09817 8.05232 5.0939 8.06224C5.09227 8.06592 5.09108 8.06986 5.08962 8.07371C5.08877 8.07593 5.08791 8.07816 5.08706 8.08047C5.08586 8.08389 5.08441 8.08731 5.08321 8.09082C5.08082 8.0987 5.07877 8.10657 5.07697 8.11461C5.0756 8.1206 5.07475 8.12659 5.07372 8.13267C5.07278 8.13857 5.07158 8.1443 5.07098 8.15021C5.0703 8.15697 5.07013 8.16373 5.06996 8.17057C5.06979 8.17408 5.06885 8.17742 5.06885 8.18101V15.8187C5.06885 15.8223 5.06979 15.8257 5.06996 15.8292C5.0703 15.8412 5.07175 15.8528 5.07346 15.8646C5.07458 15.8715 5.07543 15.8785 5.07697 15.8852C5.08005 15.8992 5.08449 15.9125 5.08954 15.9259C5.09108 15.9298 5.09227 15.9338 5.09398 15.9377C5.10082 15.9538 5.10929 15.969 5.11895 15.9837C5.11929 15.9843 5.11963 15.9849 5.11997 15.9854C5.14451 16.0222 5.17657 16.0547 5.21736 16.0783L11.8245 19.9002C11.8275 19.902 11.8308 19.9028 11.8339 19.9045C11.8392 19.9073 11.8444 19.9102 11.8499 19.9126C11.8562 19.9155 11.8628 19.918 11.8694 19.9205C11.8758 19.9229 11.8821 19.9251 11.8885 19.9271C11.8938 19.9286 11.899 19.9301 11.9043 19.9314C11.9111 19.933 11.9179 19.9341 11.9247 19.9353C11.9315 19.9364 11.9381 19.9375 11.945 19.9381C11.951 19.9387 11.957 19.9392 11.9632 19.9392H11.9833Z" fill="#1D1D1F"/>
<path d="M10.6688 13.5563C10.6132 13.4685 10.5427 13.3995 10.4602 13.3518C10.3242 13.2723 10.2186 13.2893 10.1548 13.3166C10.0477 13.3618 9.98624 13.4624 9.98624 13.5923V15.5431C9.98624 15.6053 9.97624 15.6546 9.95555 15.6902C9.93964 15.7182 9.91998 15.7362 9.89339 15.7476C9.8609 15.7608 9.81849 15.7642 9.76908 15.7572C9.70837 15.7479 9.63998 15.7216 9.56611 15.6789C9.48531 15.6319 9.40871 15.5717 9.33791 15.4995C9.26507 15.4263 9.20086 15.3451 9.147 15.2584C9.09382 15.1723 9.05099 15.0821 9.01927 14.9905C8.99028 14.9069 8.97541 14.8268 8.97541 14.7521V13.6355C8.97541 13.5439 8.94574 13.4502 8.88777 13.3583C8.83246 13.2703 8.76243 13.2011 8.67856 13.1528C8.54424 13.0746 8.43857 13.0906 8.37402 13.1179C8.32332 13.1389 8.20525 13.2084 8.20525 13.3936L8.20559 14.502C8.1973 14.6768 8.12958 14.7041 8.10334 14.7148C8.02605 14.7452 7.91866 14.7235 7.78435 14.6454C7.70535 14.5997 7.62865 14.5397 7.5565 14.4668C7.48263 14.3918 7.41876 14.311 7.36592 14.2252C7.31283 14.1399 7.26999 14.0501 7.23819 13.9585C7.20921 13.8742 7.19441 13.7937 7.19441 13.7194V11.7686C7.19441 11.6764 7.16466 11.5828 7.10635 11.4908C7.05078 11.4031 6.98033 11.3339 6.89782 11.2859C6.76214 11.2068 6.65621 11.2234 6.5944 11.2503C6.48598 11.2949 6.42383 11.3954 6.42383 11.5267V13.4775C6.42383 13.6489 6.45529 13.8293 6.51736 14.0134C6.57712 14.1924 6.66134 14.3683 6.76736 14.5358C6.87226 14.7017 6.99794 14.8589 7.14055 15.0037C7.28487 15.1499 7.44193 15.2728 7.60762 15.3693C7.8206 15.4929 8.02015 15.5586 8.2014 15.5648C8.31845 15.5693 8.42309 15.552 8.51663 15.5154C8.60811 15.6667 8.71481 15.8108 8.83493 15.9463C8.99892 16.1308 9.1853 16.2838 9.38861 16.402C9.55987 16.5012 9.72599 16.563 9.88202 16.5862C9.93306 16.5934 9.98282 16.5972 10.0308 16.5972C10.1382 16.5972 10.2369 16.5785 10.3259 16.5412C10.4599 16.4846 10.5676 16.3879 10.6453 16.2535C10.7192 16.1263 10.7565 15.9688 10.7565 15.7849V13.8341C10.7565 13.7415 10.7267 13.6479 10.6688 13.5563Z" fill="#1D1D1F"/>
<path d="M13.2779 13.5563C13.3335 13.4685 13.4039 13.3995 13.4864 13.3518C13.6225 13.2723 13.728 13.2893 13.7919 13.3166C13.899 13.3618 13.9604 13.4624 13.9604 13.5923V15.5431C13.9604 15.6053 13.9704 15.6546 13.9911 15.6902C14.007 15.7182 14.0267 15.7362 14.0533 15.7476C14.0858 15.7608 14.1282 15.7642 14.1776 15.7572C14.2383 15.7479 14.3067 15.7216 14.3806 15.6789C14.4614 15.6319 14.538 15.5717 14.6088 15.4995C14.6816 15.4263 14.7458 15.3451 14.7997 15.2584C14.8528 15.1723 14.8957 15.0821 14.9274 14.9905C14.9564 14.9069 14.9713 14.8268 14.9713 14.7521V13.6355C14.9713 13.5439 15.0009 13.4502 15.0589 13.3583C15.1142 13.2703 15.1842 13.2011 15.2681 13.1528C15.4024 13.0746 15.5081 13.0906 15.5727 13.1179C15.6234 13.1389 15.7414 13.2084 15.7414 13.3936L15.7411 14.502C15.7494 14.6768 15.8171 14.7041 15.8433 14.7148C15.9206 14.7452 16.028 14.7235 16.1623 14.6454C16.2413 14.5997 16.318 14.5397 16.3902 14.4668C16.464 14.3918 16.5279 14.311 16.5807 14.2252C16.6338 14.1399 16.6767 14.0501 16.7085 13.9585C16.7375 13.8742 16.7523 13.7937 16.7523 13.7194V11.7686C16.7523 11.6764 16.782 11.5828 16.8403 11.4908C16.8959 11.4031 16.9663 11.3339 17.0488 11.2859C17.1845 11.2068 17.2905 11.2234 17.3523 11.2503C17.4607 11.2949 17.5228 11.3954 17.5228 11.5267V13.4775C17.5228 13.6489 17.4914 13.8293 17.4293 14.0134C17.3695 14.1924 17.2853 14.3683 17.1793 14.5358C17.0744 14.7017 16.9487 14.8589 16.8061 15.0037C16.6618 15.1499 16.5047 15.2728 16.339 15.3693C16.1261 15.4929 15.9265 15.5586 15.7453 15.5648C15.6282 15.5693 15.5236 15.552 15.43 15.5154C15.3386 15.6667 15.2319 15.8108 15.1117 15.9463C14.9478 16.1308 14.7614 16.2838 14.5581 16.402C14.3868 16.5012 14.2207 16.563 14.0647 16.5862C14.0136 16.5934 13.9638 16.5972 13.9159 16.5972C13.8085 16.5972 13.7098 16.5785 13.6207 16.5412C13.4868 16.4846 13.379 16.3879 13.3014 16.2535C13.2275 16.1263 13.1902 15.9688 13.1902 15.7849V13.8341C13.1902 13.7415 13.2199 13.6479 13.2779 13.5563Z" fill="#1D1D1F"/>
<path d="M11.9731 2.9737C11.8091 2.9737 11.676 2.84056 11.676 2.67635V0.297353C11.676 0.133146 11.8091 6.31881e-07 11.9731 6.31881e-07C12.1372 6.31881e-07 12.2702 0.133146 12.2702 0.297353V2.67635C12.2702 2.84056 12.1372 2.9737 11.9731 2.9737Z" fill="#1D1D1F"/>
<path d="M11.9731 24C11.8091 24 11.676 23.8669 11.676 23.7026V21.3237C11.676 21.1594 11.8091 21.0263 11.9731 21.0263C12.1372 21.0263 12.2702 21.1594 12.2702 21.3237V23.7026C12.2702 23.8669 12.1372 24 11.9731 24Z" fill="#1D1D1F"/>
<path d="M19.9753 12C19.9753 11.8358 20.1084 11.7027 20.2724 11.7027H22.6494C22.8135 11.7027 22.9465 11.8358 22.9465 12C22.9465 12.1642 22.8135 12.2974 22.6494 12.2974H20.2724C20.1084 12.2974 19.9753 12.1642 19.9753 12Z" fill="#1D1D1F"/>
<path d="M1 12C1 11.8358 1.13303 11.7027 1.2971 11.7027H3.6741C3.83817 11.7027 3.9712 11.8358 3.9712 12C3.9712 12.1642 3.83817 12.2974 3.6741 12.2974H1.2971C1.13303 12.2974 1 12.1642 1 12Z" fill="#1D1D1F"/>
<path d="M18.8633 5.0782C18.9793 5.19431 18.9793 5.38265 18.8633 5.49877L18.2277 6.13489C18.1116 6.25101 17.9235 6.25101 17.8075 6.13489C17.6915 6.01877 17.6915 5.83052 17.8075 5.71432L18.4431 5.0782C18.5591 4.96208 18.7473 4.96208 18.8633 5.0782Z" fill="#1D1D1F"/>
<path d="M5.08335 18.9218C4.96733 18.8057 4.96733 18.6174 5.08335 18.5013L5.71894 17.8651C5.83504 17.749 6.02314 17.749 6.13916 17.8651C6.25518 17.9812 6.25518 18.1695 6.13916 18.2857L5.50357 18.9218C5.38755 19.0379 5.19937 19.0379 5.08335 18.9218Z" fill="#1D1D1F"/>
<path d="M5.08335 5.0782C4.96733 5.19431 4.96733 5.38265 5.08335 5.49877L5.71894 6.13489C5.83504 6.25101 6.02314 6.25101 6.13916 6.13489C6.25518 6.01877 6.25518 5.83052 6.13916 5.71432L5.50357 5.0782C5.38755 4.96208 5.19937 4.96208 5.08335 5.0782Z" fill="#1D1D1F"/>
<path d="M18.8633 18.9218C18.9793 18.8057 18.9793 18.6174 18.8633 18.5013L18.2277 17.8651C18.1116 17.749 17.9235 17.749 17.8075 17.8651C17.6915 17.9812 17.6915 18.1695 17.8075 18.2857L18.4431 18.9218C18.5591 19.0379 18.7473 19.0379 18.8633 18.9218Z" fill="#1D1D1F"/>
</svg>
